inDegrees=yes
name=ik_lifting_orientations
DataType=double
version=3
OpenSimVersion=4.5-2024-01-10-34fd6af
endheader
time	pelvis_tilt	pelvis_list	pelvis_rotation	pelvis_tx	pelvis_ty	pelvis_tz	hip_flexion_r	hip_adduction_r	hip_rotation_r	knee_angle_r	knee_angle_r_beta	ankle_angle_r	subtalar_angle_r	mtp_angle_r	hip_flexion_l	hip_adduction_l	hip_rotation_l	knee_angle_l	knee_angle_l_beta	ankle_angle_l	subtalar_angle_l	mtp_angle_l	lumbar_extension	lumbar_bending	lumbar_rotation	arm_flex_r	arm_add_r	arm_rot_r	elbow_flex_r	pro_sup_r	wrist_flex_r	wrist_dev_r	arm_flex_l	arm_add_l	arm_rot_l	elbow_flex_l	pro_sup_l	wrist_flex_l	wrist_dev_l
0.66	11.78891474571969	-27.20864393749679	116.2016065910977	0	0.9399999998679526	0	19.04520447048955	-8.066280153167192	0	26.65459509419575	0.4652104451796439	-4.494266784498558	0	0	19.04520447048955	-8.066280153167192	0	26.65459509419575	0.4652104451796439	-4.494266784498558	0	0	-18.19296332182196	25.19588221388977	23.15279854540022	40.04702246416102	-22.29976355935772	-30.19252924330383	12.15993244730676	52.62517295541433	0	0	0	-3.095253783345919	0	37.54910636199448	52.62517295541433	0	0
0.67	10.73168755348097	-27.366300175942	115.3605077563741	0	0.9399999998679526	0	19.05417818408418	-8.068294583496519	0	26.66622548067109	0.465413433716918	-4.494948612580101	0	0	19.05417818408418	-8.068294583496519	0	26.66622548067109	0.465413433716918	-4.494948612580101	0	0	-18.47270017635707	24.21047889869602	23.18632387680444	40.04086682746213	-22.27935101151498	-30.18802521536013	12.16142460890092	52.60838323824755	0	0	0	-3.097179045012926	0	37.56578659099934	52.60838323824755	0	0
0.68	10.59168340418047	-26.49974940258763	114.6768913118444	0	0.9399999998679526	0	19.06728504018263	-8.071313190909773	0	26.68299315109008	0.4657060847736187	-4.495976425396393	0	0	19.06728504018263	-8.071313190909773	0	26.68299315109008	0.4657060847736187	-4.495976425396393	0	0	-20.23964577071846	23.8944067969791	23.38450626117909	40.59405915940954	-21.91398664237144	-30.18387957908965	12.31873601381694	52.58372113459313	0	0	0	-3.099921689996445	0	37.59028348641466	52.58372113459313	0	0
0.6899999999999999	10.73547378911487	-27.36639270319443	115.3564191117141	0	0.9399999998679526	0	19.09388948477838	-8.077410213953515	0	26.71705229828779	0.4663005290326402	-4.498048408551256	0	0	19.09388948477838	-8.077410213953515	0	26.71705229828779	0.4663005290326402	-4.498048408551256	0	0	-19.12739720066169	23.86492609714123	22.67310583811362	39.63183991256574	-20.95023273671617	-30.56657334562402	14.15543922370854	52.53371560132239	0	0	0	-3.105503345176881	0	37.6399556576274	52.53371560132239	0	0
0.7	11.78913098749379	-27.20828056559512	116.2126597243834	0	0.9399999998679526	0	19.11630274626648	-8.082541074339058	0	26.74571927952219	0.4668008622417879	-4.49979076376443	0	0	19.11630274626648	-8.082541074339058	0	26.74571927952219	0.4668008622417879	-4.49979076376443	0	0	-19.8784806953416	26.00877308499742	22.91583228465321	39.02509783272289	-21.63333255358987	-30.32669266645921	15.48931740934836	52.49160569753757	0	0	0	-3.110205962157047	0	37.68178526418837	52.49160569753757	0	0
0.71	11.78943207966375	-27.20348732107793	116.2218521086575	0	0.9399999998679526	0	19.12511880411822	-8.084559407497183	0	26.75699151240452	0.4669975998196361	-4.500476252822319	0	0	19.12511880411822	-8.084559407497183	0	26.75699151240452	0.4669975998196361	-4.500476252822319	0	0	-20.51191065402213	25.67874776743231	22.36099997422305	39.93528376940423	-21.00177800354703	-29.99052381548955	15.71647137766908	52.47504696265877	0	0	0	-3.112057275588507	0	37.69823387392424	52.47504696265877	0	0
0.72	11.78790799204182	-27.18330344003247	116.2054250882239	0	0.9399999998679526	0	19.13380272600352	-8.086549370057988	0	26.7680838372273	0.4671911974094942	-4.5011521426395	0	0	19.13380272600352	-8.086549370057988	0	26.7680838372273	0.4671911974094942	-4.5011521426395	0	0	-20.57551678689657	25.69441032966056	22.39903312240463	39.46875641120509	-21.20450701804307	-30.41837443613788	16.65044044955687	52.45873404976781	0	0	0	-3.113878508660528	0	37.7144382042778	52.45873404976781	0	0
0.73	10.88950725056564	-28.21258244948454	116.0316735578483	0	0.9399999998679526	0	19.15190129523856	-8.090672569297999	0	26.79123258019233	0.4675952191919318	-4.502549559639357	0	0	19.15190129523856	-8.090672569297999	0	26.79123258019233	0.4675952191919318	-4.502549559639357	0	0	-20.69443482656567	25.18740672427136	22.60083382362829	38.74100343357583	-21.7978859309529	-31.12478886870331	17.95931488746413	52.42477451478971	0	0	0	-3.117686526978848	0	37.74817291871092	52.42477451478971	0	0
0.74	10.72112546909393	-29.72564034059491	116.3316822919365	0	0.9399999998679526	0	19.17629227346478	-8.096214547603525	0	26.82242504628898	0.4681396304271352	-4.504425654543276	0	0	19.17629227346478	-8.096214547603525	0	26.82242504628898	0.4681396304271352	-4.504425654543276	0	0	-20.11746518578949	25.72720478925319	22.22643432046954	39.70416530575541	-22.71544079442846	-30.77098759013414	18.93549230875682	52.37903999314872	0	0	0	-3.122825243447545	0	37.79360555294289	52.37903999314872	0	0
0.75	10.71181904822913	-29.72790410833604	116.3309773268127	0	0.9399999998679526	0	19.19273789936155	-8.099962430938577	0	26.84342150107427	0.4685060876943846	-4.505695659547545	0	0	19.19273789936155	-8.099962430938577	0	26.84342150107427	0.4685060876943846	-4.505695659547545	0	0	-21.76849458259808	25.89002099148534	22.59443313729773	41.73919795549859	-22.39474308803257	-29.44873017093196	19.46021831766859	52.34819717141118	0	0	0	-3.12628564964848	0	37.82424443972357	52.34819717141118	0	0
0.76	10.87948844642929	-30.60010954449887	117.0034653441328	0	0.9399999998679526	0	19.20241012495795	-8.10215765465254	0	26.8557865458134	0.4687218984372388	-4.506438643030779	0	0	19.20241012495795	-8.10215765465254	0	26.8557865458134	0.4687218984372388	-4.506438643030779	0	0	-20.63484830429933	25.85068375829881	21.89794497427127	42.15652161161962	-22.14660479314756	-29.12769513686026	19.50758044010259	52.33007551857794	0	0	0	-3.128328088627016	0	37.84224680864363	52.33007551857794	0	0
0.77	10.73048270986582	-32.08417226427102	117.3121571021752	0	0.9399999998679526	0	19.57926399506205	-8.163481936434763	0	27.39882877766181	0.4781997733603719	-4.52525972214149	0	0	19.57926399506205	-8.163481936434763	0	27.39882877766181	0.4781997733603719	-4.52525972214149	0	0	-20.06089942666116	25.74312575346118	22.11618098582631	41.94913852330396	-21.9249421376155	-29.98731596953061	22.45039168935704	51.66643629938581	0	0	0	-3.229660695081615	0	38.50286569440626	51.66643629938581	0	0
0.78	9.604076905538175	-32.26942630559519	116.3986855117572	0	0.9399999998679526	0	19.59021063934819	-8.165933921346435	0	27.41263950493105	0.4784408160233152	-4.526084806976	0	0	19.59021063934819	-8.165933921346435	0	27.41263950493105	0.4784408160233152	-4.526084806976	0	0	-20.29247677983296	24.75214729775667	22.05892004604691	42.21638876954175	-21.68029833237643	-29.3938956323034	22.35073080189444	51.64606282790645	0	0	0	-3.23199110927998	0	38.52310806371385	51.64606282790645	0	0
0.79	10.06262166574707	-34.1294152250185	116.1074269975239	0	0.9399999998679526	0	19.61284203882413	-8.170960408650147	0	27.44125036962771	0.4789401698141146	-4.527770954061326	0	0	19.61284203882413	-8.170960408650147	0	27.44125036962771	0.4789401698141146	-4.527770954061326	0	0	-18.62893897854568	24.12584673791187	22.47687071986646	42.65240805720662	-21.32839766293273	-29.50399879251538	23.2826122702815	51.60400480797279	0	0	0	-3.236831463890592	0	38.56489748173485	51.60400480797279	0	0
0.8	9.901897919043753	-35.58916989731903	116.4009622833008	0	0.9399999998679526	0	19.63883747084402	-8.176745631548668	0	27.47404695221287	0.4795125781636278	-4.529712098307294	0	0	19.63883747084402	-8.176745631548668	0	27.47404695221287	0.4795125781636278	-4.529712098307294	0	0	-18.10726619991254	24.00597075657616	22.69781874728218	44.67282836449009	-22.25816276825394	-29.31404161790928	23.04100278480243	51.55568822150509	0	0	0	-3.24238001009284	0	38.61290506837154	51.55568822150509	0	0
0.8100000000000001	7.721419474315446	-36.88919765928608	113.3899633399252	0	0.9399999998679526	0	19.65953628041702	-8.181278874237208	0	27.50031492454682	0.4799710407686779	-4.531225903876963	0	0	19.65953628041702	-8.181278874237208	0	27.50031492454682	0.4799710407686779	-4.531225903876963	0	0	-18.06759636703029	21.42383527875209	23.74469790024288	44.94762622495679	-22.37336833899299	-29.08498488776571	23.0410236702479	51.51733436351145	0	0	0	-3.2468528847958	0	38.65101747309032	51.51733436351145	0	0
0.82	7.898854609585213	-37.787895869218	114.0615761887246	0	0.9399999998679526	0	19.68630312150354	-8.187227192552053	0	27.53402167253022	0.4805593345011282	-4.533219472271707	0	0	19.68630312150354	-8.187227192552053	0	27.53402167253022	0.4805593345011282	-4.533219472271707	0	0	-16.9559472393693	21.38118720969802	23.09754506717115	45.08331232427291	-21.85267841681238	-29.40599822561506	24.02895286560867	51.46761499010638	0	0	0	-3.252564856196809	0	38.70041954483564	51.46761499010638	0	0
0.83	8.095094667848842	-38.71041204142903	114.7667829206173	0	0.9399999998679526	0	19.6996241236822	-8.190184584126758	0	27.55079753313921	0.4808521285036108	-4.534210490469058	0	0	19.6996241236822	-8.190184584126758	0	27.55079753313921	0.4808521285036108	-4.534210490469058	0	0	-15.81360339029955	21.30772481449798	22.43538768889303	44.2220429653589	-21.42576183300833	-29.48145910279661	25.2530800820828	51.44288434560486	0	0	0	-3.255412775161548	0	38.7249926886687	51.44288434560486	0	0
0.84	7.685310086438754	-39.23568917625577	114.3000166075155	0	0.9399999998679526	0	19.71121755854505	-8.192763921939587	0	27.56537107576762	0.4811064848061563	-4.535075053545053	0	0	19.71121755854505	-8.192763921939587	0	27.56537107576762	0.4811064848061563	-4.535075053545053	0	0	-15.48918206029852	20.77073095874205	22.50051896829091	44.60160396710276	-20.6214111962859	-29.20550542669698	26.23158871232475	51.42135418367537	0	0	0	-3.257885201005396	0	38.74638546138152	51.42135418367537	0	0
0.85	7.690022885131169	-39.23554189872038	114.2907054555731	0	0.9399999998679526	0	19.7247557031021	-8.195778054248517	0	27.58236965927644	0.4814031660565604	-4.536085256017995	0	0	19.7247557031021	-8.195778054248517	0	27.58236965927644	0.4814031660565604	-4.536085256017995	0	0	-14.51927230046829	20.27673642794134	21.67367158156757	44.00538149378102	-19.4851357756364	-30.07776277123914	27.35152228785099	51.39621126445963	0	0	0	-3.260768798054146	0	38.7713678444759	51.39621126445963	0	0
